<?xml version="1.0" encoding="utf-8"?>
<!-- Generator: Adobe Illustrator 23.1.0, SVG Export Plug-In . SVG Version: 6.00 Build 0)  -->
<svg version="1.1" id="Capa_1" xmlns="http://www.w3.org/2000/svg" xmlns:xlink="http://www.w3.org/1999/xlink" x="0px" y="0px"
	 viewBox="0 0 112.196 112.196" style="enable-background:new 0 0 112.196 112.196;" xml:space="preserve">
<style type="text/css">
	.st0{fill:url(#SVGID_1_);}
	.st1{fill:#FFFFFF;}
</style>
<g>
	<linearGradient id="SVGID_1_" gradientUnits="userSpaceOnUse" x1="0" y1="56.0979" x2="112.196" y2="56.0979">
		<stop  offset="0" style="stop-color:#E09B3D"/>
		<stop  offset="0.3" style="stop-color:#C74C4D"/>
		<stop  offset="0.6" style="stop-color:#C21975"/>
		<stop  offset="1" style="stop-color:#7024C4"/>
	</linearGradient>
	<circle class="st0" cx="56.098" cy="56.098" r="56.098"/>
</g>
<g>
	<path class="st1" d="M69.945,21.646H42.055c-11.334,0-20.555,9.221-20.555,20.555V70.09c0,11.334,9.221,20.555,20.555,20.555
		h27.889c11.334,0,20.555-9.221,20.555-20.555V42.201C90.5,30.867,81.279,21.646,69.945,21.646z M83.559,70.09
		c0,7.519-6.095,13.614-13.614,13.614H42.055c-7.519,0-13.614-6.095-13.614-13.614V42.201c0-7.519,6.095-13.614,13.614-13.614
		h27.889c7.519,0,13.614,6.095,13.614,13.614V70.09L83.559,70.09z"/>
	<path class="st1" d="M56,38.3c-9.84,0-17.846,8.006-17.846,17.846S46.16,73.991,56,73.991s17.846-8.006,17.846-17.846
		S65.84,38.3,56,38.3z M56,67.05c-6.022,0-10.904-4.882-10.904-10.904S49.978,45.241,56,45.241c6.022,0,10.904,4.882,10.904,10.904
		C66.904,62.168,62.022,67.05,56,67.05z"/>
	<circle class="st1" cx="73.88" cy="38.434" r="4.276"/>
</g>
</svg>
