<?xml version="1.0" encoding="utf-8"?>
<!-- Generator: Adobe Illustrator 23.1.0, SVG Export Plug-In . SVG Version: 6.00 Build 0)  -->
<svg version="1.1" id="Capa_1" xmlns="http://www.w3.org/2000/svg" xmlns:xlink="http://www.w3.org/1999/xlink" x="0px" y="0px"
	 viewBox="0 0 112.2 112.2" style="enable-background:new 0 0 112.2 112.2;" xml:space="preserve">
<style type="text/css">
	.st0{fill:url(#SVGID_1_);}
	.st1{fill:#C1DAEA;}
	.st2{fill:#9CC6D9;}
	.st3{fill:#FFFFFF;}
</style>
<g>
	<g>
		<linearGradient id="SVGID_1_" gradientUnits="userSpaceOnUse" x1="56.0984" y1="112.196" x2="56.0984" y2="7.192297e-04">
			<stop  offset="0" style="stop-color:#0093D4"/>
			<stop  offset="1" style="stop-color:#00B1E5"/>
		</linearGradient>
		<circle class="st0" cx="56.1" cy="56.1" r="56.1"/>
		<path class="st1" d="M38,60.2l6.7,18.4c0,0,0.8,1.7,1.7,1.7c0.9,0,14.1-13.8,14.1-13.8l14.7-28.5l-37,17.4L38,60.2z"/>
		<path class="st2" d="M46.8,64.9l-1.3,13.6c0,0-0.5,4.2,3.6,0c4.2-4.2,8.1-7.4,8.1-7.4L46.8,64.9z"/>
		<g>
			<path class="st3" d="M38.1,60.9l-13.7-4.5c0,0-1.6-0.7-1.1-2.2c0.1-0.3,0.3-0.6,1-1c3-2.1,56.1-21.2,56.1-21.2s1.5-0.5,2.4-0.2
				c0.4,0.2,0.7,0.3,0.9,1c0.1,0.2,0.1,0.7,0.1,1.2c0,0.4,0,0.7-0.1,1.2c-0.3,5.2-10,44.2-10,44.2s-0.6,2.3-2.7,2.4
				c-0.8,0-1.7-0.1-2.8-1.1c-4.1-3.5-18.1-13-21.3-15c-0.2-0.1-0.2-0.3-0.3-0.4c0-0.2,0.2-0.5,0.2-0.5s24.5-21.8,25.2-24.1
				c0.1-0.2-0.1-0.3-0.4-0.2c-1.6,0.6-29.8,18.4-33,20.4C38.6,60.9,38.1,60.9,38.1,60.9z"/>
		</g>
	</g>
</g>
</svg>
